<?xml version="1.0" standalone="no"?>
<!DOCTYPE svg PUBLIC "-//W3C//DTD SVG 20010904//EN"
 "http://www.w3.org/TR/2001/REC-SVG-20010904/DTD/svg10.dtd">
<svg version="1.0" xmlns="http://www.w3.org/2000/svg"
 width="856.000000pt" height="291.000000pt" viewBox="0 0 856.000000 291.000000"
 preserveAspectRatio="xMidYMid meet">

<g transform="translate(0.000000,291.000000) scale(0.100000,-0.100000)"
fill="#000000" stroke="none">
<path d="M260 1460 l0 -1220 4050 0 4050 0 0 1220 0 1220 -4050 0 -4050 0 0
-1220z m8068 4 c2 -1066 1 -1182 -14 -1188 -8 -3 -1816 -5 -4017 -3 l-4002 2
-3 1188 -2 1187 4017 -2 4018 -3 3 -1181z"/>
<path d="M1295 2294 c-16 -2 -81 -11 -144 -20 -125 -17 -312 -67 -404 -108
l-58 -25 4 -443 c3 -385 6 -451 21 -503 41 -140 124 -267 241 -371 90 -80 269
-198 409 -270 l116 -59 107 55 c157 80 357 216 445 302 86 85 161 192 190 276
43 123 48 183 48 608 l0 405 -55 25 c-179 79 -423 124 -695 129 -107 2 -208 1
-225 -1z m258 -269 c58 -49 106 -93 106 -96 1 -5 -205 -171 -221 -177 -4 -2
-8 20 -8 48 l0 53 -42 -7 c-73 -11 -181 -71 -235 -130 l-49 -54 -67 42 c-37
22 -66 44 -64 48 1 5 17 27 36 50 79 99 207 175 342 204 l79 17 0 50 c0 27 4
47 8 45 5 -1 56 -43 115 -93z m330 -167 c98 -99 139 -181 172 -340 5 -26 8
-28 60 -28 30 0 55 -3 55 -6 0 -9 -191 -224 -198 -224 -4 0 -23 22 -42 47 -19
26 -59 75 -87 109 -29 35 -53 65 -53 68 0 3 23 6 51 6 l52 0 -6 35 c-11 67
-57 149 -118 211 l-61 61 44 66 c23 37 47 67 51 67 4 0 40 -33 80 -72z m-800
-370 l95 -113 -57 -5 c-53 -5 -56 -6 -53 -30 7 -57 63 -153 123 -212 l61 -59
-42 -65 c-23 -35 -46 -64 -51 -64 -6 0 -45 35 -88 78 -88 86 -140 179 -162
290 l-13 62 -53 0 c-29 0 -53 2 -53 5 0 10 183 225 191 225 4 0 50 -51 102
-112z m832 -334 l65 -46 -20 -28 c-71 -100 -235 -199 -365 -221 l-75 -13 0
-48 c0 -26 -3 -48 -6 -48 -9 0 -214 181 -214 188 1 7 196 164 212 170 4 2 8
-19 8 -48 l0 -51 38 7 c97 17 197 75 253 144 18 22 34 40 35 40 2 0 33 -21 69
-46z"/>
<path d="M2580 2215 l0 -74 111 -3 111 -3 5 -280 4 -280 80 -3 79 -3 0 286 0
285 115 0 115 0 0 75 0 75 -310 0 -310 0 0 -75z"/>
<path d="M7470 2200 l0 -70 -35 0 -35 0 0 -70 0 -70 35 0 35 0 0 -152 c0 -129
3 -160 19 -195 29 -62 103 -92 195 -79 64 10 75 22 83 95 6 61 5 64 -13 56
-40 -16 -65 -17 -89 -1 -25 17 -26 17 -23 149 l3 132 63 3 62 3 0 64 0 65 -65
0 -65 0 -1 63 c-1 34 -1 65 0 70 0 4 -37 7 -84 7 l-85 0 0 -70z"/>
<path d="M3544 2126 c-16 -7 -47 -33 -67 -56 l-36 -42 -3 48 -3 49 -83 3 -84
3 4 -278 3 -278 83 -3 82 -3 0 134 c0 120 2 138 23 177 29 55 65 82 119 89
l43 6 3 83 3 82 -28 0 c-15 -1 -42 -7 -59 -14z"/>
<path d="M3865 2130 c-27 -5 -68 -16 -91 -25 l-42 -16 20 -60 c11 -32 21 -59
23 -59 1 0 21 6 43 14 39 14 78 19 139 17 38 -1 80 -35 88 -72 l6 -26 -113 1
c-98 1 -118 -2 -154 -21 -112 -60 -138 -182 -55 -264 73 -73 198 -79 288 -13
l32 24 3 -27 c3 -27 5 -28 74 -31 67 -3 72 -1 78 20 3 13 5 102 3 198 -3 190
-14 238 -68 287 -53 49 -171 71 -274 53z m169 -326 c22 -9 20 -56 -4 -87 -41
-51 -143 -60 -175 -14 -21 31 -19 54 10 82 21 21 33 25 89 25 35 0 71 -3 80
-6z"/>
<path d="M4610 2124 c-19 -8 -47 -26 -61 -40 l-27 -25 -6 35 -7 36 -74 0 -75
0 0 -280 0 -280 80 0 80 0 0 179 c0 178 0 180 26 210 32 39 80 49 124 26 51
-27 60 -62 60 -250 l0 -165 80 0 80 0 0 208 c0 208 0 209 -27 262 -22 42 -38
60 -72 77 -52 27 -128 30 -181 7z"/>
<path d="M5137 2126 c-50 -19 -76 -42 -98 -91 -34 -73 -18 -153 38 -193 17
-12 61 -31 99 -42 114 -36 134 -47 134 -74 0 -16 -8 -30 -22 -37 -32 -17 -122
-4 -175 25 -25 14 -49 26 -53 26 -4 0 -21 -23 -38 -50 l-32 -51 33 -20 c102
-63 261 -76 348 -28 50 27 89 92 89 147 0 83 -50 130 -190 177 -82 28 -100 40
-100 66 0 44 76 51 163 15 l58 -24 29 51 c16 28 27 54 24 58 -2 4 -30 17 -62
29 -73 28 -193 36 -245 16z"/>
<path d="M5835 2121 c-22 -10 -49 -28 -59 -40 -27 -30 -36 -26 -36 14 l0 35
-80 0 -80 0 2 -366 3 -366 78 -1 77 -2 0 123 c0 67 4 122 8 122 5 0 19 -11 32
-25 58 -62 179 -71 266 -20 187 110 174 431 -21 521 -61 29 -134 31 -190 5z
m113 -141 c47 -29 76 -98 67 -158 -5 -35 -16 -56 -45 -84 -33 -33 -44 -38 -84
-38 -64 0 -100 21 -125 73 -25 52 -27 93 -4 148 29 74 120 102 191 59z"/>
<path d="M6459 2124 c-60 -18 -140 -90 -170 -151 -31 -66 -33 -179 -3 -243 27
-57 83 -112 143 -141 36 -18 64 -23 131 -23 73 -1 93 3 142 27 105 52 163 144
162 262 0 89 -27 148 -96 210 -79 71 -197 94 -309 59z m167 -140 c47 -22 75
-72 76 -132 0 -90 -55 -152 -137 -152 -80 0 -135 62 -135 150 0 116 96 181
196 134z"/>
<path d="M7252 2123 c-19 -9 -46 -31 -60 -50 -15 -18 -31 -33 -35 -33 -5 0 -7
19 -5 43 l3 42 -83 3 -82 3 0 -281 0 -280 79 0 79 0 4 138 c3 129 5 140 32
186 29 49 85 85 134 86 21 0 22 4 22 80 l0 80 -27 0 c-16 0 -43 -8 -61 -17z"/>
<path d="M6660 1428 c-92 -63 -92 -204 -1 -265 45 -30 126 -31 181 -3 l40 20
0 65 0 65 -66 0 c-62 0 -65 -1 -62 -22 2 -19 10 -24 41 -26 31 -3 37 -7 37
-26 0 -13 -7 -30 -17 -37 -24 -21 -107 -18 -131 4 -49 45 -52 127 -7 173 28
28 99 33 131 10 17 -13 21 -12 37 1 24 22 22 28 -17 47 -50 24 -126 21 -166
-6z"/>
<path d="M7198 1372 c-37 -4 -88 -56 -89 -90 -4 -94 36 -142 118 -142 84 0
138 71 114 151 -17 55 -77 89 -143 81z m56 -53 c35 -16 50 -63 31 -99 -23 -45
-65 -53 -102 -18 -33 30 -31 80 3 107 31 24 35 25 68 10z"/>
<path d="M6940 1255 l0 -115 30 0 30 0 0 69 c0 63 2 71 26 90 15 12 33 21 40
21 8 0 14 11 14 25 0 30 -33 35 -62 8 -17 -15 -18 -15 -18 0 0 12 -9 17 -30
17 l-30 0 0 -115z"/>
<path d="M7402 1274 c3 -86 5 -98 27 -115 28 -23 78 -25 109 -3 20 14 22 14
22 0 0 -10 9 -16 25 -16 l25 0 0 115 0 115 -25 0 c-24 0 -25 -2 -25 -75 0 -62
-4 -79 -20 -95 -24 -24 -39 -25 -66 -6 -15 11 -19 27 -20 78 -2 100 -1 98 -30
98 l-26 0 4 -96z"/>
<path d="M7690 1214 l0 -155 23 3 c19 3 23 10 27 57 4 48 7 52 19 38 15 -19
81 -23 112 -7 27 15 49 63 49 107 0 38 -19 76 -50 100 -22 18 -90 16 -112 -4
-17 -15 -18 -15 -18 0 0 11 -8 17 -25 17 l-25 0 0 -156z m155 91 c48 -47 20
-125 -44 -125 -56 0 -83 88 -41 130 27 27 56 25 85 -5z"/>
<path d="M2805 688 c1 -117 3 -133 18 -136 15 -3 17 6 17 66 0 57 4 72 20 87
16 15 26 17 48 9 26 -9 27 -13 30 -87 3 -69 5 -77 22 -77 18 0 20 7 20 65 0
106 -42 156 -106 126 -35 -15 -34 -16 -34 34 0 36 -3 45 -17 45 -16 0 -18 -13
-18 -132z"/>
<path d="M5175 810 c-8 -14 3 -30 21 -30 8 0 14 9 14 20 0 21 -24 28 -35 10z"/>
<path d="M5252 803 c4 -21 33 -25 33 -3 0 8 -8 16 -18 18 -14 3 -18 -1 -15
-15z"/>
<path d="M5680 806 c0 -8 4 -17 9 -20 11 -7 33 18 24 27 -12 12 -33 7 -33 -7z"/>
<path d="M2700 680 c0 -109 2 -130 15 -130 13 0 15 21 15 130 0 109 -2 130
-15 130 -13 0 -15 -21 -15 -130z"/>
<path d="M6520 680 c0 -107 3 -130 14 -130 11 0 16 14 18 48 3 50 1 49 74 51
53 1 83 26 90 73 5 30 2 41 -19 62 -23 23 -34 26 -102 26 l-75 0 0 -130z m148
88 c16 -16 15 -63 -1 -77 -8 -6 -36 -12 -63 -13 l-49 -3 -3 53 -3 52 53 0 c30
0 59 -5 66 -12z"/>
<path d="M3890 775 c0 -16 -6 -25 -15 -25 -22 0 -19 -27 4 -33 15 -4 18 -15
19 -71 0 -75 12 -96 53 -96 21 0 29 5 29 18 0 13 -7 18 -22 18 -21 -1 -23 4
-26 67 -3 66 -3 67 23 67 16 0 25 6 25 15 0 9 -9 15 -25 15 -20 0 -25 5 -25
25 0 18 -5 25 -20 25 -15 0 -20 -7 -20 -25z"/>
<path d="M5540 776 c0 -13 -7 -26 -15 -30 -8 -3 -15 -10 -15 -16 0 -5 7 -10
15 -10 17 0 16 5 20 -78 4 -72 17 -94 53 -90 33 4 40 25 10 30 -21 3 -23 9
-26 71 -3 66 -3 67 23 67 16 0 25 6 25 15 0 9 -9 15 -25 15 -20 0 -25 5 -25
25 0 18 -5 25 -20 25 -14 0 -20 -7 -20 -24z"/>
<path d="M7140 775 c0 -16 -6 -25 -15 -25 -8 0 -15 -7 -15 -15 0 -8 7 -15 15
-15 12 0 15 -14 15 -69 0 -78 15 -104 58 -99 35 4 41 28 8 28 -30 0 -39 23
-34 91 3 40 6 44 31 47 15 2 27 9 27 17 0 8 -12 15 -27 17 -20 2 -29 9 -31 26
-5 31 -32 29 -32 -3z"/>
<path d="M3047 743 c-4 -3 -7 -48 -7 -100 0 -76 3 -93 15 -93 11 0 15 12 15
50 0 60 14 94 46 109 26 11 33 41 10 41 -7 0 -19 -7 -26 -15 -7 -8 -16 -15
-21 -15 -5 0 -9 7 -9 15 0 16 -12 20 -23 8z"/>
<path d="M3280 742 c0 -25 78 -187 92 -190 11 -2 25 22 52 88 40 100 42 110
22 110 -8 0 -25 -31 -42 -75 -15 -42 -30 -72 -34 -68 -3 4 -19 38 -34 76 -16
37 -34 67 -42 67 -8 0 -14 -4 -14 -8z"/>
<path d="M3538 734 c-37 -20 -56 -81 -38 -124 23 -54 101 -77 149 -44 16 12
20 19 12 27 -8 8 -14 8 -23 -1 -18 -18 -73 -14 -91 6 -31 35 -21 42 58 42 74
0 75 0 75 26 0 35 -50 84 -87 84 -15 -1 -40 -7 -55 -16z m96 -36 c9 -12 16
-26 16 -30 0 -5 -27 -8 -60 -8 -64 0 -73 9 -43 42 23 25 68 23 87 -4z"/>
<path d="M3730 650 c0 -93 1 -100 20 -100 18 0 20 7 20 63 0 66 10 85 53 100
20 7 23 37 4 37 -7 0 -23 -7 -35 -16 -20 -14 -22 -14 -22 0 0 9 -9 16 -20 16
-19 0 -20 -7 -20 -100z"/>
<path d="M4030 650 c0 -82 3 -100 15 -100 10 0 15 10 16 28 2 87 15 117 56
133 24 9 32 39 10 39 -7 0 -22 -7 -34 -15 -19 -13 -22 -13 -27 0 -3 8 -12 15
-21 15 -12 0 -15 -17 -15 -100z"/>
<path d="M4192 739 c-37 -14 -16 -29 32 -23 32 5 46 2 59 -11 28 -27 20 -35
-33 -35 -55 0 -90 -23 -90 -60 0 -47 84 -81 119 -47 11 10 14 10 18 0 3 -7 11
-13 19 -13 11 0 14 18 14 79 0 74 -2 81 -26 100 -28 22 -73 26 -112 10z m92
-95 c37 -14 3 -64 -43 -64 -16 0 -35 7 -42 16 -11 14 -10 19 10 35 24 20 48
24 75 13z"/>
<path d="M4400 667 c0 -69 3 -87 18 -100 22 -20 73 -22 90 -5 10 10 15 10 21
-1 5 -8 16 -11 25 -8 14 6 16 21 14 99 -2 75 -6 93 -18 93 -12 0 -16 -15 -18
-68 -3 -59 -6 -69 -28 -83 -20 -14 -30 -15 -49 -6 -23 11 -25 17 -25 87 0 60
-3 75 -15 75 -12 0 -15 -16 -15 -83z"/>
<path d="M4640 730 c-36 -36 -19 -71 45 -93 28 -10 40 -20 40 -33 0 -15 -7
-19 -35 -18 -19 0 -42 2 -50 5 -9 2 -15 -2 -15 -11 0 -23 66 -36 103 -21 58
24 47 81 -20 103 -32 11 -44 21 -46 37 -3 22 -1 23 44 19 50 -3 73 15 32 26
-43 11 -78 6 -98 -14z"/>
<path d="M4800 743 c0 -4 15 -48 34 -98 43 -113 60 -118 90 -28 12 34 24 65
28 68 3 4 17 -25 29 -65 31 -95 45 -90 87 29 18 52 30 96 28 99 -15 14 -36
-14 -51 -72 -10 -36 -21 -66 -25 -66 -3 0 -16 32 -29 70 -30 95 -49 95 -80 -1
-12 -39 -25 -68 -28 -65 -3 3 -15 34 -27 68 -14 40 -28 64 -39 66 -9 2 -17 0
-17 -5z"/>
<path d="M5144 736 c-13 -33 1 -144 20 -165 21 -24 74 -28 95 -8 11 10 14 10
18 0 3 -7 13 -13 24 -13 18 0 20 6 17 98 -2 78 -6 97 -18 97 -12 0 -16 -15
-18 -66 -3 -81 -25 -109 -70 -93 -25 9 -27 14 -32 83 -5 72 -22 104 -36 67z"/>
<path d="M5380 650 c0 -93 1 -100 20 -100 18 0 20 7 20 63 0 66 10 85 53 100
22 8 22 37 0 37 -9 0 -25 -7 -35 -17 -17 -15 -18 -15 -18 0 0 10 -8 17 -20 17
-19 0 -20 -7 -20 -100z"/>
<path d="M5687 743 c-4 -3 -7 -48 -7 -100 0 -76 3 -93 15 -93 12 0 15 18 15
100 0 92 -5 112 -23 93z"/>
<path d="M5801 724 c-53 -45 -40 -123 25 -150 31 -13 39 -13 66 1 37 18 43 15
34 -18 -8 -34 -56 -53 -98 -38 -36 13 -65 -2 -38 -19 22 -14 77 -23 102 -17
60 15 76 57 74 187 -1 63 -4 75 -18 78 -12 2 -18 -3 -18 -13 0 -16 -2 -16 -25
-1 -35 23 -69 20 -104 -10z m111 -21 c27 -24 23 -68 -8 -92 -15 -12 -33 -21
-41 -21 -21 0 -63 46 -63 70 0 49 73 78 112 43z"/>
<path d="M6074 740 c-33 -13 -54 -50 -54 -93 0 -30 7 -46 30 -69 28 -27 36
-30 76 -25 49 5 70 18 60 36 -5 8 -13 8 -26 1 -10 -5 -30 -10 -44 -10 -28 0
-70 35 -61 50 4 6 40 10 81 10 41 0 74 2 74 5 0 3 -6 21 -14 39 -24 56 -69 77
-122 56z m78 -37 c34 -31 23 -43 -42 -43 -64 0 -72 8 -40 40 24 24 57 26 82 3z"/>
<path d="M6267 743 c-4 -3 -7 -48 -7 -100 0 -76 3 -93 15 -93 11 0 15 12 15
49 0 64 14 99 45 113 27 12 34 38 11 38 -7 0 -19 -7 -26 -15 -7 -8 -16 -15
-21 -15 -5 0 -9 7 -9 15 0 16 -12 20 -23 8z"/>
<path d="M6792 742 c-36 -11 -21 -27 21 -24 40 4 67 -10 67 -34 0 -10 -13 -14
-43 -14 -23 0 -53 -7 -65 -16 -26 -18 -30 -65 -6 -88 17 -18 71 -21 94 -6 9 6
17 5 21 -2 4 -6 15 -8 24 -4 15 5 17 17 13 81 -2 50 -8 80 -19 90 -18 18 -74
27 -107 17z m66 -98 c30 -8 26 -44 -7 -60 -31 -16 -65 -3 -69 25 -2 15 4 24
20 30 29 12 28 12 56 5z"/>
<path d="M6987 743 c-4 -3 -7 -48 -7 -100 0 -86 1 -93 20 -93 18 0 20 7 20 63
0 66 10 85 53 100 9 4 17 13 17 22 0 20 -34 19 -51 -1 -11 -14 -13 -14 -21 0
-10 17 -20 20 -31 9z"/>
<path d="M7279 746 c-2 -2 -3 -47 -1 -100 3 -75 6 -96 18 -96 11 0 14 16 14
68 0 75 16 102 58 102 34 0 52 -37 52 -107 0 -49 3 -63 15 -63 12 0 15 15 15
78 0 69 -3 81 -23 100 -26 24 -57 28 -90 11 -16 -9 -22 -9 -25 0 -4 11 -24 15
-33 7z"/>
<path d="M7535 717 c-68 -68 -25 -167 73 -167 36 0 78 28 63 43 -8 8 -14 8
-23 -1 -19 -19 -73 -14 -92 7 -28 30 -11 41 65 41 67 0 69 1 69 24 0 37 -39
76 -82 83 -33 5 -41 2 -73 -30z m105 -17 c29 -29 17 -40 -46 -40 -58 0 -66 10
-37 42 21 24 58 23 83 -2z"/>
<path d="M7747 743 c-12 -11 -8 -181 4 -188 16 -10 18 -4 25 61 7 64 16 82 51
95 24 9 32 39 10 39 -7 0 -22 -7 -34 -15 -19 -13 -22 -13 -27 0 -6 16 -18 19
-29 8z"/>
<path d="M7877 594 c-16 -16 -7 -44 14 -44 15 0 20 5 17 22 -3 22 -19 33 -31
22z"/>
</g>
</svg>
